<svg width="130" height="22" viewBox="0 0 130 22" fill="none" xmlns="http://www.w3.org/2000/svg">
<path d="M3.54936 12.3731V18.2048H13.1172V21.5989H0V0H12.9629V3.39411H3.54936V9.00982H12.1913V12.3731H3.54936Z" fill="#353A5A"/>
<path d="M27.786 13.8233H16.3663V10.6143H27.786V13.8233Z" fill="#353A5A"/>
<path d="M48.9823 0H52.7786V21.5989H49.2292V6.20196L42.6552 17.0631H42.2231L35.6491 6.17111V21.5989H32.0997V0H35.9269L42.4392 10.7994L48.9823 0Z" fill="#353A5A"/>
<path d="M71.7775 15.3043H59.4937C59.7406 16.4563 60.2961 17.3511 61.1603 17.9888C62.0451 18.6265 63.1356 18.9453 64.4319 18.9453C66.1809 18.9453 67.508 18.3076 68.4134 17.0323L71.1603 18.6367C69.6582 20.8789 67.4051 22 64.401 22C61.9114 22 59.8846 21.2389 58.3208 19.7167C56.7776 18.1739 56.006 16.23 56.006 13.885C56.006 11.6017 56.7674 9.67835 58.29 8.11501C59.792 6.55166 61.7467 5.76999 64.1541 5.76999C66.3969 5.76999 68.2488 6.56194 69.7097 8.14586C71.1705 9.72978 71.901 11.6531 71.901 13.9158C71.901 14.3273 71.8598 14.7901 71.7775 15.3043ZM59.4628 12.5891H68.5368C68.3105 11.3754 67.7961 10.4395 66.9936 9.78121C66.2117 9.12295 65.255 8.79383 64.1233 8.79383C62.8887 8.79383 61.8599 9.13324 61.0369 9.81206C60.2138 10.4909 59.6891 11.4165 59.4628 12.5891Z" fill="#353A5A"/>
<path d="M82.9513 5.76999C84.7414 5.76999 86.1714 6.34596 87.2414 7.4979C88.3319 8.62927 88.8771 10.172 88.8771 12.1262V21.5989H85.5438V12.4656C85.5438 11.3137 85.2352 10.4292 84.6179 9.81206C84.0006 9.19495 83.157 8.88639 82.0871 8.88639C80.8731 8.88639 79.9163 9.26695 79.2167 10.028C78.5171 10.7686 78.1673 11.8691 78.1673 13.3296V21.5989H74.834V6.17111H78.1673V8.14586C79.1961 6.56194 80.7908 5.76999 82.9513 5.76999Z" fill="#353A5A"/>
<path d="M101.077 6.17111V9.38008H97.2502V16.7854C97.2502 17.4231 97.3942 17.8859 97.6823 18.1739C97.9704 18.4413 98.3922 18.5956 98.9477 18.6367C99.5238 18.6573 100.234 18.647 101.077 18.6059V21.5989C98.5259 21.9074 96.6946 21.6914 95.5835 20.9509C94.4724 20.1898 93.9169 18.8013 93.9169 16.7854V9.38008H91.0774V6.17111H93.9169V2.83871L97.2502 1.85133V6.17111H101.077Z" fill="#353A5A"/>
<path d="M116.523 19.655C114.959 21.2183 113.035 22 110.751 22C108.468 22 106.544 21.2183 104.98 19.655C103.396 18.0711 102.603 16.1477 102.603 13.885C102.603 11.6223 103.396 9.69893 104.98 8.11501C106.544 6.55166 108.468 5.76999 110.751 5.76999C113.035 5.76999 114.959 6.55166 116.523 8.11501C118.107 9.69893 118.9 11.6223 118.9 13.885C118.9 16.1477 118.107 18.0711 116.523 19.655ZM105.937 13.885C105.937 15.2838 106.4 16.446 107.326 17.3717C108.252 18.2973 109.393 18.7602 110.751 18.7602C112.11 18.7602 113.251 18.2973 114.177 17.3717C115.103 16.446 115.566 15.2838 115.566 13.885C115.566 12.4862 115.103 11.324 114.177 10.3983C113.251 9.47265 112.11 9.00982 110.751 9.00982C109.393 9.00982 108.252 9.47265 107.326 10.3983C106.4 11.324 105.937 12.4862 105.937 13.885Z" fill="#353A5A"/>
<path d="M125.247 6.17111V8.76297C126.091 6.84993 127.675 5.89341 130 5.89341V9.50351C128.745 9.42122 127.634 9.72978 126.667 10.4292C125.72 11.108 125.247 12.2394 125.247 13.8233V21.5989H121.914V6.17111H125.247Z" fill="#353A5A"/>
</svg>
